<svg xmlns="http://www.w3.org/2000/svg" viewBox="0 0 854 854" width="854" height="854" fill-rule="evenodd">
  <g transform="translate(0,854) scale(0.1,-0.1)" fill="#112238"><path d="M4465 7048 c-84 -16 -204 -79 -278 -146 -37 -34 -64 -62 -60 -62 5 0
-1 -7 -11 -15 -11 -8 -16 -15 -10 -15 5 0 2 -6 -6 -13 -8 -7 -16 -19 -18 -27
-2 -8 -9 -29 -17 -46 -28 -61 -45 -150 -45 -237 0 -90 16 -181 30 -172 5 3 6
-3 3 -13 -2 -10 11 -48 30 -84 19 -37 33 -69 31 -72 -2 -3 -1 -4 2 -2 6 5 40
-34 61 -69 6 -11 15 -19 21 -18 5 1 26 -13 46 -31 20 -19 36 -31 36 -28 0 3 9
-4 20 -16 19 -20 20 -33 18 -179 l-3 -158 -395 -6 c-292 -5 -433 -11 -540 -25
-80 -10 -162 -18 -182 -18 -21 -1 -38 -4 -38 -7 0 -5 -150 -34 -180 -34 -8 0
-17 -2 -20 -5 -6 -6 -280 -85 -295 -85 -5 0 -12 -2 -15 -5 -12 -12 -62 -30
-71 -25 -5 4 -9 2 -9 -3 0 -5 -26 -20 -57 -33 -32 -12 -101 -44 -154 -70 -53
-26 -99 -45 -103 -42 -3 4 -6 1 -6 -5 0 -14 -55 -44 -64 -35 -3 4 -6 1 -6 -5
0 -16 -61 -53 -73 -45 -6 3 -7 1 -3 -5 6 -11 -6 -16 -26 -13 -5 0 -8 -3 -8 -7
0 -12 -91 -78 -102 -74 -5 1 -7 -1 -4 -6 3 -5 -9 -19 -26 -32 -17 -12 -27 -16
-23 -9 5 8 -11 -7 -34 -33 -23 -26 -45 -47 -49 -46 -7 2 -106 -93 -107 -102 0
-3 -24 -34 -54 -70 -30 -36 -70 -86 -90 -112 -19 -27 -39 -48 -44 -48 -4 0 -5
-5 -2 -10 3 -6 0 -13 -8 -16 -7 -2 -14 -10 -14 -17 0 -7 -21 -47 -46 -90 -25
-43 -55 -103 -67 -133 -12 -30 -27 -54 -32 -54 -5 0 -7 -4 -4 -9 5 -8 -42
-151 -54 -161 -3 -3 -5 -13 -6 -22 -2 -51 -5 -59 -16 -52 -7 4 -8 3 -4 -5 4
-7 2 -34 -4 -61 -11 -46 -16 -52 -57 -70 -25 -11 -49 -17 -54 -14 -5 3 -9 1
-9 -5 0 -6 -15 -18 -32 -27 -18 -9 -49 -29 -68 -44 -19 -15 -39 -28 -43 -28
-5 0 -12 -4 -15 -8 -4 -4 0 -4 8 0 8 5 1 -4 -17 -18 -17 -15 -41 -39 -53 -54
-12 -15 -18 -21 -14 -13 5 9 3 12 -5 7 -6 -4 -9 -11 -7 -15 3 -4 -10 -24 -28
-44 -18 -20 -31 -39 -28 -41 3 -3 -3 -8 -12 -12 -9 -3 -13 -10 -11 -15 3 -4
-3 -17 -15 -29 -11 -11 -20 -22 -19 -25 2 -12 -24 -65 -32 -65 -5 0 -8 -3 -7
-7 5 -20 -15 -73 -24 -67 -7 4 -8 2 -4 -5 8 -13 -14 -81 -27 -81 -4 0 -5 -4
-2 -10 3 -5 -1 -35 -9 -67 -8 -32 -18 -88 -22 -125 -4 -38 -10 -68 -13 -68 -8
0 5 -312 17 -385 6 -33 17 -88 26 -123 9 -34 14 -67 11 -72 -3 -6 -2 -10 4
-10 9 0 25 -51 21 -66 -1 -4 2 -10 8 -13 5 -3 31 -48 57 -100 27 -51 59 -106
72 -122 14 -16 26 -35 27 -43 2 -13 104 -118 116 -120 16 -3 120 -80 120 -89
0 -6 3 -7 6 -4 4 4 19 0 33 -8 39 -22 121 -52 191 -70 68 -18 79 -25 103 -72
9 -17 24 -30 33 -29 9 0 19 -5 22 -13 3 -10 0 -12 -12 -8 -9 4 -16 4 -16 0 0
-14 84 -149 152 -245 40 -57 71 -107 70 -113 -2 -5 -1 -7 3 -3 6 6 69 -57 71
-71 1 -10 159 -166 166 -163 4 1 19 -13 34 -31 15 -17 29 -31 31 -29 2 2 21
-9 41 -24 20 -16 31 -20 23 -11 -11 15 -11 17 1 17 8 0 22 -8 31 -18 18 -20
23 -37 8 -27 -5 3 -12 2 -15 -3 -3 -5 1 -9 8 -9 16 0 76 -44 76 -55 0 -5 5 -6
10 -3 6 3 13 -1 16 -9 3 -9 10 -13 15 -10 5 3 12 -1 15 -9 2 -7 10 -14 17 -14
19 -1 98 -49 92 -56 -3 -4 -2 -5 1 -2 10 6 124 -54 124 -66 0 -5 5 -7 10 -4 6
3 10 1 10 -5 0 -6 4 -9 8 -6 11 7 133 -49 125 -58 -4 -4 0 -4 9 -1 8 3 22 0
29 -7 8 -7 23 -15 34 -16 11 -2 22 -8 23 -13 2 -5 7 -7 12 -4 8 5 131 -34 140
-44 3 -3 14 -6 25 -7 11 -1 79 -15 150 -32 274 -66 384 -73 1196 -75 401 -1
729 1 729 6 0 4 17 7 38 7 122 0 476 71 655 130 49 17 94 27 100 23 7 -3 9 -3
5 2 -8 8 143 76 174 78 9 1 15 4 13 7 -6 10 85 51 96 45 5 -4 9 -1 9 5 0 6 5
8 10 5 6 -3 10 -2 10 3 0 11 149 99 158 94 3 -2 9 3 14 12 5 9 12 15 16 13 4
-1 23 13 42 32 19 18 29 31 23 27 -8 -4 -13 -1 -13 8 0 22 22 25 45 7 11 -9
17 -12 13 -7 -6 7 91 95 99 89 1 -1 26 22 54 52 28 30 55 53 59 50 8 -5 56 42
54 53 -2 14 70 91 79 85 6 -3 7 -1 3 5 -3 6 5 19 19 31 15 11 25 21 23 23 -1
2 18 32 42 68 24 36 37 59 28 52 -24 -19 -29 -1 -8 26 20 24 35 29 27 9 -3 -8
1 -14 9 -14 7 0 11 4 8 9 -3 4 1 11 9 14 7 2 14 10 14 17 0 18 33 67 46 67 6
0 7 3 4 7 -4 3 11 39 33 79 40 72 49 101 30 89 -6 -3 -7 1 -4 9 4 10 19 16 38
16 17 0 58 7 91 14 33 8 63 12 67 10 5 -3 8 -1 8 4 0 9 79 39 93 34 4 -1 7 3
7 10 0 6 3 9 6 6 3 -3 17 5 31 18 15 14 33 22 40 20 7 -3 12 0 10 7 -1 7 6 11
15 11 10 -1 16 2 13 6 -3 4 6 15 20 24 14 9 25 14 25 11 0 -2 28 26 61 63 34
37 70 75 81 85 11 9 17 17 14 17 -4 0 0 11 9 24 8 13 13 32 9 42 -5 15 -4 16
5 4 8 -12 11 -12 17 3 3 9 11 14 18 10 6 -3 8 -3 4 2 -4 4 4 30 18 57 22 44
23 50 9 64 -8 9 -15 20 -15 25 0 12 33 12 46 -1 6 -6 10 -4 11 8 1 9 13 55 27
102 27 91 32 125 16 115 -6 -3 -7 1 -4 9 3 9 10 14 14 11 13 -8 20 51 26 226
7 169 -3 347 -16 299 -6 -25 -6 -25 -14 -1 -5 15 -4 26 4 31 18 11 6 84 -32
195 -80 238 -232 424 -431 525 -56 29 -104 55 -107 59 -3 3 -11 6 -17 6 -7 0
-12 4 -10 10 1 5 6 9 11 7 4 -1 5 14 1 35 -4 21 -8 45 -9 53 0 8 -3 17 -6 20
-3 3 -25 57 -48 120 -36 97 -105 244 -88 187 4 -11 2 -16 -5 -12 -6 4 -8 14
-5 22 6 16 -36 104 -82 173 -17 24 -28 49 -25 55 4 5 3 7 -2 3 -7 -7 -87 94
-85 107 1 4 -10 15 -25 26 -14 12 -23 25 -19 30 3 5 2 8 -3 7 -12 -4 -74 67
-67 75 3 3 -11 17 -33 30 -38 24 -78 63 -78 76 0 3 -3 5 -7 4 -3 -1 -22 15
-41 36 -20 22 -37 37 -40 35 -3 -3 -14 7 -26 22 -11 15 -21 24 -21 20 0 -4
-12 2 -26 13 -15 11 -31 18 -37 14 -5 -3 -7 -2 -4 4 6 9 -141 112 -210 147
-18 9 -33 21 -33 26 0 6 -3 9 -7 8 -8 -3 -245 101 -253 111 -3 3 -14 7 -25 9
-11 2 -39 10 -63 18 -24 8 -48 12 -53 9 -5 -4 -9 -2 -9 3 0 9 -150 62 -176 62
-8 0 -14 5 -14 11 0 5 -4 8 -9 4 -5 -3 -65 6 -133 19 -142 28 -342 52 -510 62
-65 3 -118 10 -118 16 0 5 -4 6 -10 3 -7 -4 -10 51 -10 158 0 165 0 165 27
183 15 9 33 17 40 17 7 0 11 2 10 4 -7 6 108 118 118 115 6 -2 1 4 -10 13 -15
12 -17 19 -9 33 11 17 32 15 26 -3 -2 -5 7 1 20 15 14 14 23 28 21 33 -2 4 1
7 7 7 6 0 9 4 6 8 -3 5 4 33 16 63 18 45 22 75 22 184 1 133 -12 196 -52 267
-14 25 -17 25 -29 10 -12 -15 -13 -14 -3 6 14 28 -8 66 -75 132 -38 37 -47 42
-55 30 -5 -8 -10 -10 -10 -4 0 5 6 16 13 23 7 8 7 11 1 8 -6 -4 -23 4 -38 18
-15 13 -30 25 -34 25 -19 1 -42 12 -42 21 0 6 -3 8 -7 6 -5 -3 -39 3 -78 14
-76 19 -171 22 -250 7z m562 -1660 c-11 -7 82 -2 148 7 22 4 26 2 15 -5 -11
-7 -5 -10 25 -11 32 0 36 -2 20 -10 -14 -6 -4 -7 30 -3 37 4 46 3 35 -5 -11
-9 -4 -10 29 -5 32 5 42 4 37 -4 -5 -8 2 -10 25 -5 24 5 30 3 24 -7 -5 -9 -2
-10 13 -6 30 10 98 -4 80 -16 -9 -6 -6 -7 10 -3 27 8 84 -3 77 -15 -3 -4 5 -6
17 -2 15 4 19 2 13 -7 -5 -10 -2 -11 14 -6 13 4 21 2 21 -5 0 -7 7 -10 15 -6
8 3 15 1 15 -5 0 -6 9 -8 21 -4 16 5 19 4 14 -5 -5 -9 -1 -10 15 -5 17 5 21 4
15 -6 -6 -9 -3 -11 10 -5 24 9 87 -12 79 -26 -4 -6 -2 -8 4 -5 15 10 43 -3 35
-16 -4 -6 0 -8 10 -4 10 3 17 2 17 -4 0 -6 5 -7 10 -4 6 3 10 2 10 -4 0 -6 7
-7 17 -4 9 4 14 2 11 -3 -4 -5 6 -10 20 -11 14 0 31 -8 36 -15 6 -8 17 -13 23
-11 7 3 16 -2 19 -11 3 -9 10 -13 15 -10 5 3 9 0 9 -7 0 -7 3 -9 7 -6 3 4 12
-1 20 -11 10 -11 12 -12 8 -2 -4 8 1 6 9 -4 9 -11 16 -16 16 -11 0 5 7 0 16
-11 8 -10 12 -13 8 -5 -14 28 125 -64 165 -108 13 -14 20 -19 16 -11 -4 8 8
-1 25 -20 17 -19 29 -28 25 -20 -4 8 13 -5 37 -31 23 -25 34 -34 23 -20 -11
15 22 -14 73 -64 88 -85 119 -121 69 -79 -12 10 0 -3 29 -31 60 -59 88 -93 64
-81 -8 5 -1 -4 15 -19 17 -14 23 -23 15 -20 -8 4 -4 -3 10 -15 14 -12 18 -19
10 -15 -8 4 -4 -3 10 -14 14 -11 21 -21 16 -21 -6 0 -1 -7 10 -16 10 -8 12
-13 4 -9 -8 4 -6 -1 4 -9 11 -9 16 -16 11 -16 -5 0 0 -7 11 -16 10 -8 12 -13
4 -9 -10 4 -9 2 2 -8 10 -8 15 -17 11 -20 -3 -4 -1 -7 6 -7 7 0 10 -4 7 -9 -3
-5 1 -12 10 -15 9 -4 14 -13 10 -22 -4 -10 -2 -13 6 -8 8 5 9 2 5 -10 -4 -10
-3 -15 3 -11 6 3 10 13 10 21 0 8 5 14 10 14 14 0 13 -7 -7 -37 -13 -19 -14
-25 -4 -18 11 6 13 4 8 -8 -3 -10 -2 -17 3 -17 5 0 6 -7 3 -17 -4 -10 -2 -14
4 -10 14 9 24 -18 16 -40 -4 -10 -2 -14 5 -9 13 8 26 -29 16 -45 -5 -8 -3 -9
6 -4 10 6 11 2 6 -19 -5 -20 -3 -26 5 -21 8 5 9 1 4 -15 -5 -17 -4 -21 6 -15
9 6 11 2 7 -13 -4 -14 -2 -20 4 -16 7 5 9 -2 4 -20 -4 -16 -2 -26 4 -26 7 0 9
-8 5 -20 -4 -12 -2 -20 5 -20 8 0 9 -10 5 -31 -5 -24 -4 -30 5 -24 10 6 12 -2
7 -36 -4 -25 -3 -36 2 -24 5 14 10 1 14 -44 10 -93 7 -1191 -3 -1161 -5 16 -7
-1 -3 -45 3 -49 2 -66 -6 -56 -7 11 -8 2 -4 -29 4 -31 3 -41 -5 -36 -8 5 -10
-2 -6 -24 4 -20 3 -30 -5 -30 -8 0 -10 -8 -6 -20 8 -26 -4 -82 -16 -74 -6 3
-7 -5 -3 -22 5 -19 4 -25 -5 -20 -9 6 -10 0 -5 -20 5 -19 4 -25 -5 -20 -9 6
-10 0 -5 -20 5 -18 3 -25 -4 -20 -6 4 -8 -2 -4 -16 3 -13 1 -19 -5 -15 -7 5
-9 -1 -5 -15 3 -14 1 -19 -6 -14 -8 5 -10 2 -6 -8 3 -9 1 -16 -5 -16 -6 0 -8
-7 -5 -15 4 -8 1 -15 -5 -15 -6 0 -8 -7 -4 -17 5 -12 3 -14 -7 -8 -9 5 -11 4
-6 -4 9 -15 -3 -53 -15 -46 -5 3 -6 0 -3 -8 7 -18 -92 -217 -108 -217 -6 0 -8
-3 -5 -7 4 -3 -1 -12 -11 -20 -11 -10 -12 -12 -2 -8 13 6 13 5 0 -7 -8 -7 -16
-19 -18 -27 -5 -22 -41 -73 -71 -100 -14 -13 -19 -20 -11 -16 8 3 2 -6 -15
-20 -16 -15 -23 -24 -15 -20 8 4 1 -6 -15 -22 -17 -15 -24 -24 -15 -19 8 4
-12 -18 -45 -49 -33 -32 -51 -52 -40 -44 30 19 -92 -106 -150 -154 -27 -23
-45 -35 -41 -27 5 8 -6 -1 -23 -20 -18 -19 -29 -28 -26 -20 4 8 -5 2 -20 -15
-14 -16 -23 -23 -20 -15 4 8 -3 3 -16 -11 -27 -30 -78 -66 -100 -71 -8 -2 -18
-8 -24 -15 -5 -7 -16 -13 -24 -15 -8 -2 -23 -11 -33 -21 -10 -10 -23 -15 -28
-12 -6 4 -10 1 -10 -5 0 -6 -4 -8 -10 -5 -5 3 -10 1 -10 -5 0 -6 -4 -8 -10 -5
-5 3 -10 2 -10 -4 0 -14 -58 -43 -70 -36 -6 3 -10 1 -10 -5 0 -6 -4 -8 -10 -5
-5 3 -10 1 -10 -5 0 -7 -7 -9 -16 -6 -8 3 -13 2 -10 -3 7 -11 -22 -23 -35 -15
-5 3 -9 0 -9 -6 0 -7 -7 -9 -16 -6 -9 4 -13 2 -8 -5 4 -8 -1 -9 -16 -4 -15 5
-20 3 -16 -3 8 -13 -29 -26 -45 -16 -8 5 -9 3 -4 -6 6 -9 2 -10 -15 -5 -16 5
-20 4 -15 -5 5 -9 1 -10 -15 -5 -16 5 -20 4 -15 -5 5 -9 1 -10 -15 -5 -16 5
-20 4 -15 -5 5 -9 1 -10 -15 -5 -14 4 -20 3 -16 -3 8 -13 -37 -24 -60 -15 -13
5 -15 3 -9 -7 6 -10 2 -11 -19 -6 -20 5 -26 4 -20 -5 5 -9 -1 -10 -20 -5 -20
5 -26 4 -20 -5 5 -9 -1 -10 -20 -5 -20 5 -26 4 -20 -5 5 -9 -1 -10 -25 -6 -22
5 -30 3 -25 -5 5 -8 -4 -9 -31 -4 -27 5 -35 4 -30 -5 6 -9 -2 -10 -30 -5 -28
6 -35 4 -29 -5 5 -9 -3 -10 -35 -5 -25 4 -40 3 -37 -3 12 -19 -102 -23 -829
-26 -412 -1 -730 1 -705 5 31 6 15 7 -50 4 -70 -4 -91 -2 -80 6 11 8 1 9 -39
4 -40 -5 -52 -4 -47 5 6 8 -4 10 -35 5 -32 -5 -40 -4 -35 5 6 9 -1 11 -29 5
-26 -5 -36 -3 -31 4 4 7 -6 9 -31 6 -29 -4 -34 -3 -23 5 11 8 7 9 -19 4 -25
-4 -32 -3 -27 6 6 9 0 10 -20 5 -19 -5 -25 -4 -20 5 6 9 0 10 -20 5 -19 -5
-25 -4 -20 5 6 9 0 10 -20 5 -21 -5 -25 -4 -19 6 6 10 4 12 -9 7 -21 -8 -68 2
-61 13 3 5 -5 6 -17 2 -13 -3 -19 -1 -15 5 5 7 -1 9 -15 5 -13 -3 -19 -1 -15
5 5 7 -1 9 -15 5 -14 -3 -19 -1 -14 6 5 8 2 10 -8 6 -9 -3 -16 -1 -16 5 0 6
-7 8 -17 4 -12 -5 -14 -3 -8 7 5 9 4 11 -4 6 -15 -9 -53 3 -46 15 3 5 -1 6 -9
3 -9 -3 -16 -1 -16 6 0 6 -4 8 -10 5 -5 -3 -10 -2 -10 4 0 6 -7 8 -15 5 -8 -4
-17 1 -21 10 -3 9 -10 14 -14 11 -13 -8 -40 6 -33 18 3 5 1 7 -5 4 -15 -10
-43 3 -35 16 3 6 1 7 -5 3 -14 -8 -72 20 -72 36 0 6 -3 8 -7 5 -3 -4 -12 1
-20 11 -8 9 -11 11 -8 4 6 -11 3 -12 -14 -3 -11 7 -21 16 -21 22 0 6 -4 8 -9
4 -6 -3 -14 3 -20 12 -6 10 -11 14 -11 9 0 -6 -7 -1 -16 10 -8 10 -13 12 -9 4
3 -8 -2 -5 -11 7 -13 18 -20 21 -36 12 -29 -16 -72 -7 -76 15 -3 14 1 18 15
14 12 -3 20 0 20 8 0 7 -4 12 -8 11 -4 -1 -15 7 -24 18 -9 11 -14 13 -10 5 4
-8 -5 -1 -19 15 -14 16 -30 30 -36 30 -5 0 -23 16 -40 35 -17 19 -28 28 -24
20 4 -8 -10 1 -32 20 -51 46 -145 149 -119 131 11 -8 -2 7 -30 33 -27 26 -43
44 -35 41 8 -4 2 5 -15 20 -16 14 -23 24 -15 20 8 -4 6 1 -5 10 -11 9 -19 20
-18 25 2 5 -7 7 -20 4 -38 -7 -57 5 -57 37 0 17 4 28 9 24 5 -3 13 0 17 6 4 8
3 9 -4 5 -7 -4 -12 -2 -12 3 0 20 -3 26 -19 38 -9 7 -13 13 -9 13 5 0 -1 9
-12 20 -12 12 -18 25 -15 30 4 6 1 10 -5 10 -6 0 -8 5 -5 10 3 6 1 10 -4 10
-15 0 -73 119 -65 132 5 7 2 8 -6 3 -10 -6 -12 -4 -7 9 5 11 3 15 -5 10 -8 -5
-9 -2 -4 11 5 15 4 16 -9 5 -14 -11 -14 -10 -5 14 7 20 7 25 -2 20 -8 -5 -9
-2 -5 9 4 10 2 17 -4 17 -6 0 -8 7 -5 16 4 10 2 13 -6 8 -7 -5 -9 0 -6 14 4
14 2 20 -5 15 -6 -4 -8 2 -5 15 4 14 2 20 -5 15 -6 -4 -8 2 -5 15 4 14 2 20
-4 16 -6 -4 -8 2 -3 16 5 16 4 20 -5 15 -9 -5 -10 -2 -5 14 4 13 2 21 -5 21
-7 0 -9 8 -5 21 5 13 3 19 -3 15 -13 -8 -36 87 -27 115 5 16 4 19 -5 14 -10
-6 -12 1 -7 31 5 29 4 35 -4 24 -8 -11 -9 -2 -5 35 3 29 2 44 -3 37 -16 -26
-21 116 -21 643 0 527 5 669 21 643 5 -7 6 8 3 37 -4 39 -3 47 6 35 9 -12 10
-11 5 8 -10 33 4 109 17 91 6 -9 7 -3 3 20 -5 25 -4 32 5 26 9 -5 10 -2 5 14
-4 12 -2 21 4 21 6 0 8 7 5 15 -4 8 -2 15 4 15 6 0 8 10 4 22 -3 13 -1 19 5
15 7 -5 9 1 5 15 -3 14 -1 19 6 14 8 -5 10 -1 5 9 -4 13 -8 14 -14 4 -6 -10
-10 -7 -17 11 -5 14 -8 28 -5 33 8 14 33 7 34 -10 0 -11 3 -13 6 -5 2 6 9 10
14 7 5 -4 6 1 3 9 -3 9 -1 16 6 16 6 0 9 4 6 9 -8 13 4 42 15 35 5 -3 6 2 3
10 -3 9 -1 16 6 16 6 0 8 5 5 10 -3 6 -2 10 3 10 6 0 9 8 8 18 0 9 4 16 11 15
7 -2 10 3 7 11 -3 8 3 23 14 34 11 11 18 23 14 26 -3 3 -1 6 5 6 5 0 10 6 10
13 0 12 72 127 80 127 2 0 1 -5 -3 -12 -4 -7 -3 -8 5 -4 6 4 8 12 5 18 -3 5
18 33 47 61 30 28 45 44 34 36 -36 -25 53 69 138 147 90 84 145 126 133 103
-5 -7 4 0 19 16 14 17 23 23 20 15 -4 -8 3 -4 15 10 12 14 19 18 15 10 -4 -8
3 -4 15 10 12 14 19 18 15 10 -4 -8 3 -4 15 10 12 14 18 18 14 10 -4 -8 5 -2
19 13 15 15 31 26 36 23 5 -3 12 1 15 10 4 9 13 14 22 10 8 -3 12 -2 9 4 -6 9
8 14 28 11 4 0 7 4 7 10 0 5 5 7 10 4 6 -3 10 -1 10 5 0 6 5 8 10 5 6 -3 10
-1 10 6 0 7 3 10 6 7 3 -4 15 3 25 13 11 11 26 18 32 16 7 -2 18 3 26 10 7 8
20 12 28 9 8 -3 12 -2 9 3 -7 11 22 23 35 15 5 -3 9 -1 9 5 0 6 7 7 17 4 12
-5 14 -3 8 7 -6 10 -4 12 8 7 10 -4 17 -2 17 4 0 6 7 8 16 5 9 -4 13 -2 8 5
-4 8 1 9 16 4 15 -5 20 -3 16 3 -7 12 29 26 44 17 5 -3 10 -1 10 5 0 7 7 10
15 6 8 -3 15 -1 15 5 0 6 7 9 15 5 8 -3 15 -1 15 5 0 6 7 9 15 5 8 -3 15 -1
15 5 0 6 9 8 21 4 13 -5 19 -3 15 3 -8 13 39 25 67 17 16 -5 18 -4 8 3 -18 13
39 26 70 17 16 -5 19 -4 14 5 -6 10 -1 11 19 6 20 -5 26 -4 20 5 -5 9 3 10 31
5 27 -5 35 -4 30 5 -6 9 2 10 30 5 27 -5 35 -4 30 5 -6 9 2 10 30 5 28 -6 35
-4 29 5 -5 9 5 11 42 6 35 -4 43 -3 29 4 -14 7 -1 8 45 5 38 -2 57 -1 45 4
-14 6 -5 9 35 11 109 7 1558 4 1547 -3z m2278 -1718 c-4 8 3 4 16 -10 13 -14
20 -20 15 -13 -18 27 2 11 59 -49 33 -35 51 -56 40 -49 -11 8 -3 -1 18 -21 37
-36 48 -55 25 -43 -7 4 -6 1 2 -7 8 -7 16 -20 18 -28 2 -8 10 -20 17 -26 8 -6
12 -14 8 -17 -3 -4 -1 -7 6 -7 8 0 11 -6 7 -16 -4 -10 -2 -13 6 -8 8 5 9 2 5
-10 -4 -9 -3 -15 2 -11 13 7 33 -58 25 -80 -6 -14 -4 -16 6 -10 10 6 12 3 8
-13 -4 -12 -2 -22 4 -22 6 0 7 -11 4 -26 -5 -18 -3 -24 5 -19 8 6 9 -2 4 -25
-5 -24 -4 -31 5 -25 8 5 10 -10 6 -57 -4 -42 -3 -55 3 -38 6 17 9 -18 9 -105
0 -88 -3 -120 -9 -100 -6 20 -7 8 -3 -38 3 -50 2 -67 -7 -62 -8 5 -9 -2 -4
-25 5 -24 4 -31 -5 -25 -9 6 -10 -1 -5 -25 5 -25 4 -31 -5 -25 -10 6 -11 1 -6
-19 5 -20 3 -26 -5 -21 -8 5 -9 1 -4 -15 5 -16 4 -20 -5 -15 -9 5 -10 1 -5
-15 5 -16 4 -20 -5 -15 -9 5 -10 1 -5 -15 5 -15 4 -20 -4 -16 -7 4 -9 1 -5 -8
6 -16 -22 -76 -36 -76 -9 0 -26 -43 -19 -47 2 -1 -5 -9 -16 -18 -11 -9 -13
-14 -5 -10 8 4 4 -3 -10 -15 -14 -12 -18 -19 -10 -15 8 4 1 -6 -15 -22 -17
-15 -24 -23 -15 -18 8 6 -10 -16 -40 -47 -54 -57 -77 -75 -49 -40 8 10 -1 2
-19 -17 -19 -20 -31 -29 -27 -21 3 8 -1 6 -9 -4 -9 -11 -16 -17 -16 -13 0 4
-9 -2 -21 -14 -11 -11 -27 -18 -35 -15 -8 3 -14 0 -15 -7 0 -7 -4 -3 -9 8 -12
28 -12 37 0 30 7 -4 8 3 4 21 -5 21 -4 25 6 19 10 -6 12 -4 7 9 -4 10 -7 22
-7 27 0 6 -4 7 -10 4 -6 -4 -10 5 -10 19 0 29 16 35 23 9 3 -13 5 -11 7 7 1
23 2 24 11 5 7 -15 7 -11 3 14 -5 25 -3 32 6 26 10 -6 11 1 6 31 -5 30 -4 35
4 24 9 -12 10 -8 5 17 -7 38 4 105 16 97 5 -3 7 23 4 58 -3 35 -1 53 3 40 4
-13 7 235 6 550 -1 315 2 544 6 508 7 -65 7 -65 8 4 2 65 3 69 18 50 8 -10 12
-12 9 -4z m-6074 -538 c0 -377 3 -542 11 -544 6 -2 11 -38 12 -90 0 -47 5 -84
10 -81 5 4 6 -11 2 -33 -5 -30 -4 -36 4 -24 9 12 10 6 6 -25 -4 -30 -3 -36 5
-25 8 11 9 7 5 -17 -3 -20 -1 -33 5 -33 6 0 8 -9 4 -21 -5 -16 -4 -19 5 -14
10 6 11 1 6 -19 -5 -20 -4 -26 5 -20 9 5 10 0 5 -20 -4 -15 -2 -26 3 -26 6 0
8 -7 5 -15 -4 -11 -11 -12 -24 -5 -9 5 -20 6 -24 3 -3 -3 -6 -1 -6 5 0 7 -4
11 -9 9 -5 -1 -17 7 -26 18 -9 11 -13 14 -10 6 6 -9 1 -9 -17 3 -14 9 -29 13
-33 9 -5 -5 -4 -1 3 8 9 13 4 22 -31 55 -42 39 -42 39 -2 -6 34 -39 35 -41 7
-15 -40 36 -83 92 -61 81 7 -4 4 1 -8 12 -12 11 -19 22 -16 26 3 3 -2 8 -11
12 -9 3 -13 10 -10 15 3 5 0 9 -6 9 -6 0 -9 4 -6 9 3 5 -8 7 -24 6 -18 -2 -31
3 -34 12 -7 17 2 36 13 29 3 -3 7 4 7 15 0 10 -4 19 -9 19 -5 0 -6 7 -3 16 4
10 2 13 -6 8 -8 -5 -9 -2 -5 9 3 10 2 17 -3 17 -5 0 -7 7 -4 15 4 8 1 15 -6
15 -7 0 -10 7 -6 16 4 10 2 13 -6 8 -8 -5 -9 2 -4 22 7 26 6 27 -6 11 -12 -16
-13 -11 -12 37 1 31 -2 56 -7 56 -5 0 -6 15 -3 33 4 24 3 28 -5 17 -8 -12 -11
-8 -11 17 0 25 -4 31 -15 27 -8 -4 -15 -1 -15 5 0 6 5 11 10 11 6 0 11 42 12
103 l2 102 7 -95 c5 -77 6 -66 4 60 -1 88 1 146 6 135 5 -13 6 -3 3 25 -4 35
-3 42 6 30 9 -12 10 -11 5 8 -8 27 3 84 15 77 4 -3 6 5 2 17 -4 15 -2 19 7 13
10 -6 11 -2 6 15 -5 15 -4 20 4 16 7 -5 9 -1 5 8 -3 9 -1 16 5 16 6 0 8 7 4
17 -5 12 -3 14 7 8 10 -6 12 -4 7 8 -3 10 -2 17 4 17 6 0 7 5 4 10 -3 6 -1 10
4 10 6 0 10 3 10 8 -3 19 2 33 11 27 6 -3 7 1 3 10 -4 13 -8 14 -14 4 -4 -8
-11 -10 -15 -6 -4 4 -3 12 4 19 8 8 16 8 29 -3 10 -7 15 -9 11 -5 -4 5 0 15
10 23 11 10 12 12 2 8 -8 -4 -6 1 4 9 11 9 21 23 22 32 2 9 8 22 15 28 9 8 10
7 4 -4 -8 -13 -7 -13 8 -1 17 14 24 26 9 17 -15 -9 -33 10 -26 28 5 12 14 16
28 12 14 -4 31 4 55 27 20 18 29 23 22 12 -7 -11 -3 -8 10 6 13 14 25 25 27
24 1 -1 2 -245 3 -543z M4205 4470 l1280 -5 -1333 -2 c-733 -1 -1337 -5 -1342 -8 -5 -3 -21
-3 -36 1 -21 5 -25 4 -19 -6 6 -10 2 -11 -19 -6 -17 4 -25 3 -22 -3 8 -12 -49
-25 -65 -15 -8 5 -9 3 -4 -6 6 -10 3 -12 -13 -8 -12 4 -22 2 -22 -4 0 -6 -7
-7 -16 -4 -10 4 -13 2 -8 -6 5 -8 2 -9 -9 -5 -10 3 -17 2 -17 -4 0 -6 -4 -7
-10 -4 -5 3 -10 1 -10 -5 0 -7 -7 -9 -16 -6 -10 4 -13 2 -8 -6 5 -8 2 -9 -10
-5 -9 4 -15 3 -12 -2 3 -5 -1 -12 -10 -15 -10 -4 -13 -2 -9 7 4 6 -1 3 -9 -7
-9 -11 -16 -17 -16 -13 0 4 -9 -2 -20 -13 -12 -12 -25 -18 -29 -15 -5 2 -12
-2 -15 -11 -4 -9 -9 -14 -12 -12 -3 3 -20 -10 -39 -29 -18 -19 -41 -36 -49
-37 -18 -3 -67 -46 -62 -55 3 -4 -9 -22 -26 -41 -16 -19 -26 -28 -22 -20 4 9
3 12 -2 7 -5 -5 -9 -13 -9 -17 0 -5 -9 -16 -20 -25 -11 -9 -13 -14 -5 -10 8 4
4 -3 -10 -15 -14 -12 -18 -19 -10 -15 12 5 12 4 -1 -7 -16 -13 -19 -19 -19
-39 0 -5 -4 -7 -10 -4 -6 4 -7 -1 -3 -11 4 -12 3 -15 -5 -10 -8 5 -10 1 -5
-10 4 -12 3 -15 -5 -10 -8 5 -10 1 -5 -10 5 -13 3 -15 -7 -9 -9 5 -11 4 -6 -4
9 -15 -3 -53 -15 -46 -5 3 -6 -2 -2 -11 5 -12 3 -15 -6 -9 -10 6 -11 2 -6 -15
5 -14 3 -20 -3 -16 -6 4 -8 -2 -4 -16 3 -13 1 -19 -5 -15 -7 5 -9 -1 -5 -15 3
-14 1 -19 -6 -14 -8 5 -10 -2 -5 -25 4 -23 3 -30 -5 -25 -8 5 -10 -2 -5 -25 4
-20 2 -30 -4 -26 -6 4 -8 -27 -7 -81 2 -67 1 -77 -5 -42 -5 25 -8 -128 -7
-340 1 -385 1 -385 6 -70 6 315 6 315 5 -42 0 -196 4 -351 8 -345 5 7 6 -7 3
-31 -5 -32 -3 -42 5 -36 9 5 10 -1 5 -20 -5 -20 -4 -26 5 -20 9 5 10 1 7 -14
-4 -14 -2 -20 5 -15 6 4 8 -2 5 -15 -4 -12 -2 -22 4 -22 6 0 7 -7 4 -16 -4
-10 -2 -13 6 -8 8 5 9 2 5 -9 -4 -10 -2 -17 4 -17 6 0 8 -7 5 -16 -4 -10 -2
-13 6 -8 8 5 9 2 5 -10 -5 -11 -3 -15 5 -10 8 5 9 2 5 -10 -5 -11 -3 -15 5
-10 8 5 9 2 5 -10 -5 -11 -3 -15 5 -10 8 5 9 2 5 -10 -4 -10 -3 -15 3 -11 6 3
10 1 10 -4 0 -6 0 -13 0 -16 0 -3 9 -14 20 -25 12 -12 18 -26 14 -32 -4 -6 -3
-9 2 -6 5 3 18 -6 28 -20 12 -15 14 -22 5 -17 -8 5 9 -13 37 -41 27 -27 36
-38 20 -24 -20 16 -15 8 13 -22 24 -26 48 -45 52 -43 4 3 17 -7 29 -22 12 -16
19 -21 15 -13 -4 8 6 2 20 -15 15 -16 24 -23 20 -15 -3 8 1 6 9 -4 9 -11 16
-16 16 -10 0 5 7 0 15 -10 8 -11 15 -16 15 -11 0 5 7 0 16 -11 8 -10 13 -13 9
-6 -5 10 -1 10 19 1 14 -7 23 -16 20 -20 -3 -5 3 -6 12 -2 12 4 15 3 10 -5 -5
-8 -1 -10 10 -5 12 4 15 3 10 -5 -5 -8 -1 -10 10 -5 12 4 15 3 10 -5 -5 -8 -2
-10 8 -6 9 3 16 1 16 -5 0 -6 7 -8 17 -4 11 5 14 3 8 -6 -6 -10 -2 -11 15 -6
16 5 20 4 15 -5 -5 -9 -1 -10 15 -5 16 5 20 4 15 -5 -5 -9 -2 -10 13 -6 26 8
74 -3 66 -15 -3 -6 5 -7 20 -3 15 3 26 2 26 -4 0 -6 24 -8 63 -6 43 3 56 1 42
-5 -12 -6 499 -9 1360 -10 946 0 1375 3 1365 10 -11 8 2 9 43 6 35 -4 57 -2
57 5 0 6 12 7 31 3 21 -5 29 -4 25 3 -8 13 49 26 65 16 8 -5 9 -3 4 6 -6 10
-2 11 19 6 20 -5 26 -4 20 5 -5 9 -2 10 9 6 10 -4 17 -2 17 4 0 6 7 8 16 5 10
-4 13 -2 8 6 -5 8 -2 9 9 5 10 -3 17 -2 17 3 0 5 7 6 17 3 12 -5 14 -3 8 7 -6
10 -4 12 9 7 10 -4 15 -3 11 3 -6 9 8 14 28 11 4 0 7 4 7 11 0 6 3 9 6 5 3 -3
14 3 25 14 11 11 25 17 31 13 7 -4 8 -3 4 4 -7 11 6 17 27 13 5 -1 6 3 2 9 -3
5 -1 11 4 11 6 1 15 2 20 3 5 0 13 5 18 10 5 5 2 6 -7 2 -8 -5 -2 3 15 17 16
14 33 23 36 21 3 -2 26 18 50 44 44 47 44 47 -2 7 -25 -22 -16 -11 20 24 36
36 59 61 51 57 -8 -4 -3 3 11 16 18 16 25 31 23 52 -3 27 -2 27 12 10 9 -11
12 -13 8 -5 -4 9 2 21 17 33 13 11 18 17 11 13 -10 -5 -10 -1 -1 19 7 14 16
23 20 20 5 -3 6 3 2 12 -4 12 -3 15 5 10 8 -5 10 -1 5 10 -5 13 -3 15 7 9 9
-5 11 -4 6 4 -10 16 3 53 16 45 6 -4 8 1 3 16 -5 16 -4 20 5 15 9 -5 10 -1 5
15 -5 16 -4 20 4 15 8 -5 10 1 5 21 -5 19 -4 25 4 20 8 -5 10 3 6 26 -4 26 -3
30 5 18 9 -11 10 -4 5 30 -3 25 -2 40 3 33 4 -6 8 195 8 447 0 252 -4 453 -8
447 -5 -7 -6 4 -3 26 3 26 1 35 -6 31 -8 -5 -9 3 -5 25 5 23 3 30 -5 25 -7 -5
-9 0 -6 14 4 14 2 20 -4 16 -7 -5 -9 3 -4 22 5 23 4 26 -5 14 -9 -12 -10 -11
-6 8 3 14 1 20 -6 15 -6 -4 -8 2 -5 15 4 12 3 20 -1 18 -4 -3 -12 8 -18 25 -6
16 -7 27 -2 23 5 -3 4 6 -2 20 -7 14 -16 23 -20 20 -8 -5 -11 2 -8 22 0 3 -6
11 -14 17 -23 19 -55 73 -37 63 8 -5 2 4 -15 19 -16 14 -23 23 -15 20 8 -4 0
5 -18 20 -18 15 -30 30 -27 34 2 4 -12 23 -33 42 -37 34 -37 34 -7 -2 17 -19
3 -8 -29 25 -33 34 -56 55 -51 47 5 -9 0 -8 -17 3 -14 9 -29 13 -33 9 -5 -5
-3 1 5 11 9 12 10 17 3 13 -7 -4 -21 0 -31 10 -10 10 -25 19 -33 21 -8 2 -19
10 -25 17 -6 8 -14 12 -17 8 -4 -3 -7 -1 -7 6 0 7 -4 9 -10 6 -5 -3 -10 -1
-10 5 0 6 -4 8 -10 5 -5 -3 -10 -1 -10 5 0 6 -4 8 -10 5 -5 -3 -10 -2 -10 4 0
6 -7 8 -15 5 -8 -4 -15 -1 -15 5 0 6 -7 8 -17 4 -10 -4 -14 -2 -10 4 5 7 -1 9
-15 5 -13 -3 -19 -1 -15 5 5 7 -1 9 -15 5 -14 -3 -19 -1 -14 6 5 8 -3 10 -26
6 -26 -4 -30 -3 -18 5 12 9 9 10 -12 5 -18 -4 -28 -2 -28 5 0 6 -12 8 -32 4
-20 -4 -29 -3 -25 4 5 7 -22 10 -81 7 -58 -2 -79 -1 -62 5 15 5 -528 8 -1305
8 l-1330 -2 1280 -5z m-805 -831 c-12 -8 -9 -9 13 -5 17 4 27 2 27 -5 0 -6 7
-8 16 -5 10 4 13 2 8 -6 -5 -8 -2 -9 9 -5 10 4 17 1 17 -5 0 -6 3 -9 6 -5 4 3
15 -4 26 -16 11 -12 16 -15 12 -7 -5 8 6 4 23 -10 18 -14 30 -30 28 -37 -2 -7
1 -15 7 -19 7 -4 8 -3 4 4 -4 7 -5 12 -2 12 3 0 10 -10 17 -21 9 -17 8 -20 -3
-14 -7 3 -6 1 3 -7 9 -7 14 -19 12 -25 -3 -7 0 -13 6 -13 6 0 7 -7 4 -17 -5
-11 -3 -14 6 -8 10 6 12 0 6 -25 -5 -23 -4 -30 4 -26 8 5 11 -42 11 -166 0
-109 -4 -168 -9 -159 -7 10 -9 -1 -8 -33 2 -37 -2 -51 -17 -62 -11 -8 -16 -14
-10 -14 5 0 2 -5 -6 -10 -8 -5 -15 -14 -15 -19 0 -17 -56 -72 -67 -65 -7 4 -8
3 -4 -4 6 -11 -6 -16 -26 -13 -5 0 -8 -4 -8 -10 0 -5 -4 -7 -10 -4 -5 3 -10 2
-10 -4 0 -6 -7 -7 -17 -4 -10 4 -14 2 -10 -4 11 -17 -28 -22 -201 -22 -118 0
-161 3 -156 11 5 7 -1 9 -20 4 -16 -4 -26 -2 -26 4 0 6 -4 9 -9 6 -13 -8 -42
4 -35 15 3 5 -3 6 -12 2 -12 -4 -15 -3 -10 5 4 7 2 10 -6 7 -8 -3 -27 9 -43
27 -27 29 -27 31 -4 13 14 -11 7 -2 -15 19 -23 22 -34 36 -26 31 8 -5 2 4 -13
18 -15 15 -32 27 -38 27 -5 0 -9 5 -9 11 0 5 5 7 10 4 6 -3 10 -2 10 4 0 5 3
18 6 28 4 11 3 14 -3 6 -4 -6 -8 79 -8 192 0 112 4 201 9 198 4 -3 5 4 2 15
-10 29 6 55 77 124 70 68 89 80 113 71 13 -5 15 -3 9 7 -6 10 -2 11 19 6 18
-4 25 -3 21 4 -4 7 48 10 162 10 122 0 164 -3 153 -11z m2039 -1 c-10 -7 -5
-8 14 -3 39 8 102 -24 152 -77 22 -23 33 -38 25 -33 -9 6 -6 1 6 -10 29 -27
47 -63 40 -81 -3 -8 -2 -13 2 -10 4 2 6 -93 5 -212 -2 -265 -1 -244 -13 -237
-6 3 -7 -1 -4 -9 4 -10 -5 -26 -25 -43 -17 -15 -31 -32 -31 -38 0 -19 -48 -58
-61 -50 -7 5 -10 4 -5 -3 8 -14 -30 -35 -50 -28 -9 3 -12 1 -9 -4 8 -13 25
-11 -170 -16 -182 -5 -240 0 -229 18 5 8 1 9 -11 5 -19 -8 -92 30 -116 60 -13
17 -12 17 7 3 11 -8 4 1 -17 20 -41 39 -63 76 -54 90 3 6 1 10 -5 10 -6 0 -8
11 -4 28 3 16 2 22 -3 15 -6 -9 -9 269 -4 405 1 7 5 10 11 7 6 -3 7 1 4 9 -4
10 -1 16 7 16 7 0 9 3 6 7 -4 3 2 20 13 38 11 18 18 35 15 38 -3 4 -2 5 2 2 3
-3 16 3 27 12 21 18 21 18 1 -8 -11 -14 -5 -10 13 10 17 19 32 31 32 28 0 -4
9 2 21 14 13 13 27 18 41 13 15 -4 18 -3 13 6 -6 9 1 10 26 5 26 -5 30 -4 19
5 -11 7 31 10 154 9 110 -1 164 -5 155 -11z"/></g>
  <g transform="translate(0,854) scale(0.1,-0.1)" fill="#edf2fb"><path d="M3570 5379 c-400 -27 -766 -118 -1075 -269 -471 -230 -789 -578 -928
-1015 -71 -224 -72 -235 -72 -950 0 -640 0 -640 28 -770 49 -227 131 -439 245
-630 100 -167 280 -375 432 -498 137 -111 352 -241 400 -242 14 0 25 -6 25
-13 0 -17 165 -88 312 -135 123 -40 301 -79 448 -99 143 -19 1531 -19 1695 0
293 34 571 113 815 232 126 61 267 148 260 161 -3 5 0 7 7 4 15 -6 140 90 242
185 256 240 455 585 547 949 57 222 61 291 56 954 -3 563 -5 608 -24 692 -103
450 -363 820 -758 1077 -327 213 -728 334 -1223 368 -178 12 -1247 11 -1432
-1z m2136 -910 c392 -54 708 -336 817 -728 20 -71 21 -104 25 -508 4 -479 -1
-538 -58 -696 -48 -131 -118 -238 -234 -352 -148 -146 -295 -226 -494 -267
-88 -18 -153 -18 -1540 -16 -1447 3 -1447 3 -1535 31 -187 58 -335 146 -453
269 -140 146 -223 302 -259 489 -21 115 -22 867 0 991 56 321 289 601 605 726
69 27 182 56 255 65 79 10 2799 6 2871 -4z"/></g>
  <g transform="translate(0,854) scale(0.1,-0.1)" fill="#4eeffe"><path d="M3084 3630 c-103 -22 -177 -78 -215 -163 -23 -49 -24 -63 -24 -252 0
-182 2 -204 21 -246 31 -66 78 -114 142 -146 56 -27 61 -28 232 -28 162 0 179
2 227 24 68 30 135 102 157 169 15 43 17 83 14 249 -3 194 -4 199 -30 243 -36
61 -83 105 -141 130 -40 18 -73 22 -195 25 -81 3 -165 0 -188 -5z M5121 3630 c-101 -21 -172 -78 -215 -169 -19 -42 -21 -64 -21 -246 0
-231 7 -259 89 -339 71 -69 118 -81 316 -81 161 0 167 1 222 28 73 36 130 100
152 171 15 46 17 87 14 243 -3 177 -4 191 -28 236 -30 59 -86 112 -149 140
-38 17 -70 21 -191 23 -80 2 -165 -1 -189 -6z"/></g>
  <g transform="translate(0,854) scale(0.1,-0.1)" fill="#5159ce"><path d="M6384 8055 c-16 -10 -24 -34 -34 -92 -47 -297 -168 -484 -380 -586
-57 -28 -133 -55 -190 -68 -109 -25 -140 -45 -123 -82 9 -20 25 -28 81 -40
171 -39 339 -129 427 -230 85 -98 150 -251 180 -427 10 -61 22 -99 32 -107 44
-34 67 -5 88 108 66 361 248 563 585 648 88 22 110 34 110 60 0 32 -19 42
-129 71 -339 89 -508 284 -571 658 -11 65 -28 102 -48 102 -4 0 -17 -7 -28
-15z M7374 6232 c-6 -4 -19 -42 -28 -84 -44 -199 -153 -316 -338 -364 -83
-22 -108 -34 -108 -54 0 -24 17 -36 76 -49 116 -27 170 -57 245 -133 66 -66
94 -121 123 -242 36 -144 67 -142 105 4 54 209 133 294 338 363 70 24 99 38
101 51 6 27 -8 35 -91 56 -124 31 -221 91 -273 169 -31 48 -70 147 -84 219
-12 54 -23 72 -45 72 -5 0 -15 -4 -21 -8z"/></g>
  <g transform="translate(0,854) scale(0.1,-0.1)" fill="#a4a4eb"><path d="M7280 3619 c-1 -35 -1 -244 0 -464 0 -534 -14 -712 -76 -953 -13 -51
-24 -95 -24 -97 0 -12 99 46 148 86 128 104 221 278 268 501 23 110 24 382 1
484 -27 118 -73 231 -131 317 -55 83 -82 112 -148 162 -38 27 -38 27 -38 -36z M1160 3609 c-118 -115 -200 -276 -234 -459 -21 -110 -21 -355 0 -458
40 -196 114 -343 233 -463 65 -65 161 -133 161 -114 0 4 -11 50 -25 103 -57
225 -58 244 -64 871 l-6 585 -65 -65z M3922 733 c170 -2 446 -2 615 0 170 1 31 2 -307 2 -338 0 -477 -1
-308 -2z"/></g>
  <g transform="translate(0,854) scale(0.1,-0.1)" fill="#00000b"><path d="M3523 4463 c361 -2 953 -2 1315 0 361 1 65 2 -658 2 -723 0 -1019 -1
-657 -2z M7006 3870 c4 -19 10 -312 13 -650 l7 -615 -1 615 c-1 426 -5 626
-13 650 -11 35 -11 35 -6 0z M1476 3749 c-8 -81 -6 -1139 2 -1204 4 -27 7 246 7 608 0 361 0 657
-1 657 -1 0 -4 -28 -8 -61z M5036 743 c-4 -5 -344 -11 -754 -14 l-747 -5 750 2 c444 1 768 6 795
12 45 9 45 9 4 11 -22 0 -44 -2 -48 -6z"/></g>
</svg>
